STARTFONT 2.1
FONT -Bitstream-Terminal-Bold-R-Normal--25-180-100-100-C-150-DEC-DECtech
SIZE 18 100 100
FONTBOUNDINGBOX 14 25 0 -5

STARTPROPERTIES 28
CHARSET_REGISTRY "DEC"
CHARSET_ENCODING "DECtech"
CAP_HEIGHT 15
X_HEIGHT 12
AVERAGE_WIDTH 150
AVG_CAPITAL_WIDTH 150
AVG_LOWERCASE_WIDTH 150
FIGURE_WIDTH 15
FONTNAME_REGISTRY ""
FAMILY_NAME "Terminal"
FOUNDRY "Bitstream"
WEIGHT_NAME "Bold"
SETWIDTH_NAME "Normal"
SLANT "R"
ADD_STYLE_NAME ""
PIXEL_SIZE 18
POINT_SIZE 180
RESOLUTION_X 100
RESOLUTION_Y 100
SPACING "C"
CHARSET_COLLECTIONS "DEC-DECtech"
FULL_NAME "Terminal Bold"
COPYRIGHT "Copyright (c) 1988 Bitstream, Inc., Copyright 1991 Digital Equipment Corporation.  All Rights Reserved."
WEIGHT 10
QUAD_WIDTH 13
DEFAULT_CHAR 159
FONT_DESCENT 5
FONT_ASCENT 20
ENDPROPERTIES

CHARS 181

STARTCHAR space
ENCODING 32
SWIDTH 565 0
DWIDTH 15 0
BBX 1 1 0 0
BITMAP
00
ENDCHAR

STARTCHAR exclam
ENCODING 33
SWIDTH 565 0
DWIDTH 15 0
BBX 6 15 4 0
BITMAP
78
78
78
78
78
78
78
78
78
00
30
FC
FC
FC
30
ENDCHAR

STARTCHAR quotedbl
ENCODING 34
SWIDTH 565 0
DWIDTH 15 0
BBX 8 7 3 10
BITMAP
E7
E7
E7
E7
E7
E7
E7
ENDCHAR

STARTCHAR numbersign
ENCODING 35
SWIDTH 565 0
DWIDTH 15 0
BBX 14 19 0 -4
BITMAP
1CE0
1CE0
1CE0
1CE0
1CE0
FFFC
FFFC
FFFC
1CE0
1CE0
1CE0
FFFC
FFFC
FFFC
1CE0
1CE0
1CE0
1CE0
1CE0
ENDCHAR

STARTCHAR dollar
ENCODING 36
SWIDTH 565 0
DWIDTH 15 0
BBX 12 22 1 -4
BITMAP
0700
0700
0700
1F70
7FF0
7FF0
F0F0
F070
FC00
FF00
3FC0
0FE0
03F0
E0F0
F0F0
FFF0
FFE0
EF80
0E00
0E00
0E00
0E00
ENDCHAR

STARTCHAR percent
ENCODING 37
SWIDTH 565 0
DWIDTH 15 0
BBX 12 16 1 -1
BITMAP
7C00
FE00
E600
E630
E660
FEC0
7D80
0300
0C00
1BE0
37F0
6730
C730
0730
07F0
03E0
ENDCHAR

STARTCHAR ampersand
ENCODING 38
SWIDTH 565 0
DWIDTH 15 0
BBX 12 15 1 0
BITMAP
1F60
3FE0
3CE0
3C60
3C00
1E70
1E70
3F70
F7E0
F3E0
F3E0
F1E0
FFF0
FFF0
3F70
ENDCHAR

STARTCHAR quoteright
ENCODING 39
SWIDTH 565 0
DWIDTH 15 0
BBX 7 7 4 11
BITMAP
3E
3E
7C
78
F0
E0
C0
ENDCHAR

STARTCHAR parenleft
ENCODING 40
SWIDTH 565 0
DWIDTH 15 0
BBX 8 21 4 -3
BITMAP
07
0E
1E
3C
78
78
F0
F0
F0
F0
F0
F0
F0
F0
F0
78
78
3C
1E
0E
07
ENDCHAR

STARTCHAR parenright
ENCODING 41
SWIDTH 565 0
DWIDTH 15 0
BBX 8 21 2 -3
BITMAP
E0
70
78
38
3C
1E
1E
0F
0F
0F
0F
0F
0F
0F
0F
1E
1E
1C
3C
38
70
ENDCHAR

STARTCHAR asterisk
ENCODING 42
SWIDTH 565 0
DWIDTH 15 0
BBX 13 11 0 2
BITMAP
0700
0700
0700
EFB8
FFF8
7FF0
1FC0
1FC0
3DE0
78F0
7070
ENDCHAR

STARTCHAR plus
ENCODING 43
SWIDTH 565 0
DWIDTH 15 0
BBX 12 13 1 1
BITMAP
0F00
0F00
0F00
0F00
0F00
FFF0
FFF0
FFF0
0F00
0F00
0F00
0F00
0F00
ENDCHAR

STARTCHAR comma
ENCODING 44
SWIDTH 565 0
DWIDTH 15 0
BBX 6 8 4 -4
BITMAP
7C
7C
78
78
F0
F0
F0
E0
ENDCHAR

STARTCHAR minus
ENCODING 45
SWIDTH 565 0
DWIDTH 15 0
BBX 10 3 2 6
BITMAP
FFC0
FFC0
FFC0
ENDCHAR

STARTCHAR period
ENCODING 46
SWIDTH 565 0
DWIDTH 15 0
BBX 6 5 4 0
BITMAP
30
FC
FC
FC
30
ENDCHAR

STARTCHAR slash
ENCODING 47
SWIDTH 565 0
DWIDTH 15 0
BBX 11 20 1 -3
BITMAP
00E0
00E0
01E0
01C0
01C0
03C0
0380
0780
0700
0700
0E00
0E00
1E00
1C00
3C00
3800
7800
7000
F000
E000
ENDCHAR

STARTCHAR zero
ENCODING 48
SWIDTH 565 0
DWIDTH 15 0
BBX 11 15 2 0
BITMAP
0E00
3F80
7BC0
71C0
F1E0
F1E0
F1E0
F1E0
F1E0
F1E0
F1E0
71C0
7BC0
3F80
0E00
ENDCHAR

STARTCHAR one
ENCODING 49
SWIDTH 565 0
DWIDTH 15 0
BBX 11 15 2 0
BITMAP
0F00
3F00
FF00
FF00
CF00
0F00
0F00
0F00
0F00
0F00
0F00
0F00
7FE0
7FE0
7FE0
ENDCHAR

STARTCHAR two
ENCODING 50
SWIDTH 565 0
DWIDTH 15 0
BBX 11 15 2 0
BITMAP
3F80
FFC0
FFE0
E3E0
E1E0
03E0
07C0
0F80
1F00
3C00
78E0
F0E0
FFE0
FFE0
FFE0
ENDCHAR

STARTCHAR three
ENCODING 51
SWIDTH 565 0
DWIDTH 15 0
BBX 11 15 2 0
BITMAP
3F00
FF80
FFC0
E3C0
03C0
07C0
1F80
1FC0
1FE0
01E0
01E0
E3E0
FFE0
FFC0
3F00
ENDCHAR

STARTCHAR four
ENCODING 52
SWIDTH 565 0
DWIDTH 15 0
BBX 13 15 1 0
BITMAP
01E0
03E0
07E0
0FE0
1DE0
39E0
79E0
71E0
FFF8
FFF8
FFF8
01E0
01E0
01E0
01E0
ENDCHAR

STARTCHAR five
ENCODING 53
SWIDTH 565 0
DWIDTH 15 0
BBX 11 15 2 0
BITMAP
FFC0
FFC0
FFC0
F000
F000
FF00
FFC0
FFE0
E3E0
01E0
01E0
E3E0
FFE0
FFC0
7F00
ENDCHAR

STARTCHAR six
ENCODING 54
SWIDTH 565 0
DWIDTH 15 0
BBX 11 15 2 0
BITMAP
07C0
1FC0
3FC0
7C00
7000
F780
FFC0
FFE0
F9E0
F0E0
F0E0
79E0
7FC0
3FC0
1F00
ENDCHAR

STARTCHAR seven
ENCODING 55
SWIDTH 565 0
DWIDTH 15 0
BBX 11 15 2 0
BITMAP
FFE0
FFE0
FFE0
E1E0
E1C0
01C0
03C0
03C0
0380
0780
0780
0F00
0F00
1E00
1E00
ENDCHAR

STARTCHAR eight
ENCODING 56
SWIDTH 565 0
DWIDTH 15 0
BBX 11 15 2 0
BITMAP
1F00
7FC0
7BC0
F1E0
F1E0
71C0
3F80
7FC0
F1E0
F1E0
F1E0
F1E0
FBE0
7FC0
3F80
ENDCHAR

STARTCHAR nine
ENCODING 57
SWIDTH 565 0
DWIDTH 15 0
BBX 11 15 2 0
BITMAP
1F00
7F80
7FC0
F3C0
E1E0
E1E0
F3E0
FFE0
7FE0
3DE0
01C0
07C0
7F80
7F00
7C00
ENDCHAR

STARTCHAR colon
ENCODING 58
SWIDTH 565 0
DWIDTH 15 0
BBX 6 12 4 0
BITMAP
30
FC
FC
FC
30
00
00
30
FC
FC
FC
30
ENDCHAR

STARTCHAR semicolon
ENCODING 59
SWIDTH 565 0
DWIDTH 15 0
BBX 7 16 3 -4
BITMAP
18
7E
7E
7E
18
00
00
00
7C
7C
78
78
F0
F0
F0
E0
ENDCHAR

STARTCHAR less
ENCODING 60
SWIDTH 565 0
DWIDTH 15 0
BBX 11 13 1 1
BITMAP
0060
01E0
03E0
0F80
3E00
F800
F000
F800
3E00
1F80
07E0
01E0
0060
ENDCHAR

STARTCHAR equal
ENCODING 61
SWIDTH 565 0
DWIDTH 15 0
BBX 10 8 2 3
BITMAP
FFC0
FFC0
FFC0
0000
0000
FFC0
FFC0
FFC0
ENDCHAR

STARTCHAR greater
ENCODING 62
SWIDTH 565 0
DWIDTH 15 0
BBX 11 13 2 1
BITMAP
C000
F000
FC00
3F00
0F80
03E0
01E0
03E0
0F80
3E00
F800
F000
C000
ENDCHAR

STARTCHAR question
ENCODING 63
SWIDTH 565 0
DWIDTH 15 0
BBX 10 15 2 0
BITMAP
7F00
FFC0
FFC0
F3C0
03C0
0FC0
1F80
3E00
3C00
0000
1800
7E00
7E00
7E00
1800
ENDCHAR

STARTCHAR at
ENCODING 64
SWIDTH 565 0
DWIDTH 15 0
BBX 13 19 1 -3
BITMAP
0F80
3FC0
70E0
6060
E070
E3F0
E7F0
EE70
EE70
EE70
EE70
EFF8
E3B8
E000
F000
7830
3FF0
1FE0
0780
ENDCHAR

STARTCHAR A
ENCODING 65
SWIDTH 565 0
DWIDTH 15 0
BBX 14 15 0 0
BITMAP
0FC0
0FC0
0FC0
0FC0
1FE0
1CE0
1CF0
3CF0
3FF0
3FF8
7FF8
7878
FCFC
FCFC
FCFC
ENDCHAR

STARTCHAR B
ENCODING 66
SWIDTH 565 0
DWIDTH 15 0
BBX 12 15 1 0
BITMAP
FFC0
FFE0
FFF0
78F0
78F0
78E0
7FC0
7FE0
78F0
78F0
78F0
78F0
FFF0
FFE0
FFC0
ENDCHAR

STARTCHAR C
ENCODING 67
SWIDTH 565 0
DWIDTH 15 0
BBX 11 15 2 0
BITMAP
1E60
7FE0
7FE0
F8E0
F0E0
F000
F000
F000
F000
F000
F000
F8E0
7FE0
7FE0
1F80
ENDCHAR

STARTCHAR D
ENCODING 68
SWIDTH 565 0
DWIDTH 15 0
BBX 12 15 1 0
BITMAP
FF80
FFE0
FFE0
79F0
78F0
78F0
78F0
78F0
78F0
78F0
78F0
79F0
FFE0
FFE0
FF80
ENDCHAR

STARTCHAR E
ENCODING 69
SWIDTH 565 0
DWIDTH 15 0
BBX 11 15 2 0
BITMAP
FFE0
FFE0
FFE0
78E0
7800
7800
7F80
7F80
7F80
7800
7800
78E0
FFE0
FFE0
FFE0
ENDCHAR

STARTCHAR F
ENCODING 70
SWIDTH 565 0
DWIDTH 15 0
BBX 12 15 1 0
BITMAP
FFF0
FFF0
FFF0
3C70
3C00
3C00
3FC0
3FC0
3FC0
3C00
3C00
3C00
FF00
FF00
FF00
ENDCHAR

STARTCHAR G
ENCODING 71
SWIDTH 565 0
DWIDTH 15 0
BBX 12 15 1 0
BITMAP
1F30
7FF0
7FF0
F870
F070
F000
F000
F3F0
F3F0
F3F0
F0F0
F8F0
7FE0
7FE0
1F80
ENDCHAR

STARTCHAR H
ENCODING 72
SWIDTH 565 0
DWIDTH 15 0
BBX 13 15 1 0
BITMAP
F8F8
F8F8
F8F8
78F0
78F0
7FF0
7FF0
7FF0
7FF0
78F0
78F0
78F0
F8F8
F8F8
F8F8
ENDCHAR

STARTCHAR I
ENCODING 73
SWIDTH 565 0
DWIDTH 15 0
BBX 10 15 2 0
BITMAP
FFC0
FFC0
FFC0
1E00
1E00
1E00
1E00
1E00
1E00
1E00
1E00
1E00
FFC0
FFC0
FFC0
ENDCHAR

STARTCHAR J
ENCODING 74
SWIDTH 565 0
DWIDTH 15 0
BBX 12 15 1 0
BITMAP
0FF0
0FF0
0FF0
01E0
01E0
01E0
01E0
01E0
E1E0
E1E0
E1E0
F1E0
FFC0
7FC0
1F00
ENDCHAR

STARTCHAR K
ENCODING 75
SWIDTH 565 0
DWIDTH 15 0
BBX 12 15 1 0
BITMAP
F9F0
F9F0
F9F0
7BC0
7B80
7F00
7F00
7F80
7F80
7BC0
7BC0
79E0
F9F0
F9F0
F9F0
ENDCHAR

STARTCHAR L
ENCODING 76
SWIDTH 565 0
DWIDTH 15 0
BBX 12 15 1 0
BITMAP
FF00
FF00
FF00
3C00
3C00
3C00
3C00
3C00
3C70
3C70
3C70
3C70
FFF0
FFF0
FFF0
ENDCHAR

STARTCHAR M
ENCODING 77
SWIDTH 565 0
DWIDTH 15 0
BBX 13 15 1 0
BITMAP
F078
F078
F8F8
78F0
7DF0
7FF0
7FF0
7FF0
7770
7770
7270
7270
F078
F078
F078
ENDCHAR

STARTCHAR N
ENCODING 78
SWIDTH 565 0
DWIDTH 15 0
BBX 11 15 2 0
BITMAP
F1E0
F1E0
F1E0
79C0
79C0
7DC0
7FC0
7FC0
7FC0
77C0
77C0
73C0
F3C0
F1C0
F1C0
ENDCHAR

STARTCHAR O
ENCODING 79
SWIDTH 565 0
DWIDTH 15 0
BBX 12 15 1 0
BITMAP
1F80
7FE0
7FE0
F9F0
F0F0
F0F0
F0F0
F0F0
F0F0
F0F0
F0F0
F9F0
7FE0
7FE0
1F80
ENDCHAR

STARTCHAR P
ENCODING 80
SWIDTH 565 0
DWIDTH 15 0
BBX 12 15 1 0
BITMAP
FFC0
FFE0
FFF0
78F0
78F0
78F0
78F0
7FF0
7FE0
7FC0
7800
7800
FE00
FE00
FE00
ENDCHAR

STARTCHAR Q
ENCODING 81
SWIDTH 565 0
DWIDTH 15 0
BBX 12 19 1 -4
BITMAP
1F80
7FE0
7FE0
F9F0
F0F0
F0F0
F0F0
F0F0
F0F0
F0F0
F0F0
F9F0
7FE0
7FE0
1F80
1C00
3FE0
3FE0
3BE0
ENDCHAR

STARTCHAR R
ENCODING 82
SWIDTH 565 0
DWIDTH 15 0
BBX 13 15 1 0
BITMAP
FFC0
FFE0
FFF0
78F0
78F0
78F0
7FE0
7FC0
7FC0
79E0
79E0
78F0
F8F8
F878
F878
ENDCHAR

STARTCHAR S
ENCODING 83
SWIDTH 565 0
DWIDTH 15 0
BBX 10 15 2 0
BITMAP
3CC0
7FC0
FFC0
F3C0
F0C0
F800
FE00
7F80
1FC0
07C0
C3C0
E3C0
FFC0
FF80
DF00
ENDCHAR

STARTCHAR T
ENCODING 84
SWIDTH 565 0
DWIDTH 15 0
BBX 14 15 0 0
BITMAP
FFFC
FFFC
FFFC
E79C
E79C
E79C
0780
0780
0780
0780
0780
0780
1FE0
1FE0
1FE0
ENDCHAR

STARTCHAR U
ENCODING 85
SWIDTH 565 0
DWIDTH 15 0
BBX 12 15 1 0
BITMAP
F9F0
F9F0
F9F0
79E0
79E0
79E0
79E0
79E0
79E0
79E0
79E0
79E0
7FE0
3FC0
1F80
ENDCHAR

STARTCHAR V
ENCODING 86
SWIDTH 565 0
DWIDTH 15 0
BBX 12 15 1 0
BITMAP
F9F0
F9F0
F9F0
79E0
79E0
79E0
79E0
39C0
39C0
39C0
3FC0
1F80
1F80
0F00
0F00
ENDCHAR

STARTCHAR W
ENCODING 87
SWIDTH 565 0
DWIDTH 15 0
BBX 14 15 0 0
BITMAP
FCFC
FCFC
FCFC
7038
7038
7338
7338
7338
77B8
7FF8
3FF0
3FF0
3CF0
1CE0
1CE0
ENDCHAR

STARTCHAR X
ENCODING 88
SWIDTH 565 0
DWIDTH 15 0
BBX 12 15 1 0
BITMAP
F9F0
F9F0
F9F0
70E0
79E0
3FC0
1F80
0F00
0F80
1F80
3FC0
79E0
F0F0
F0F0
F0F0
ENDCHAR

STARTCHAR Y
ENCODING 89
SWIDTH 565 0
DWIDTH 15 0
BBX 12 15 1 0
BITMAP
F8F0
F8F0
F8F0
78E0
3DE0
3DC0
1FC0
1F80
0F00
0F00
0F00
0F00
1F80
1F80
1F80
ENDCHAR

STARTCHAR Z
ENCODING 90
SWIDTH 565 0
DWIDTH 15 0
BBX 10 15 2 0
BITMAP
FFC0
FFC0
FFC0
C780
C780
0F00
0F00
1E00
1E00
3C00
7CC0
78C0
FFC0
FFC0
FFC0
ENDCHAR

STARTCHAR bracketleft
ENCODING 91
SWIDTH 565 0
DWIDTH 15 0
BBX 7 22 4 -4
BITMAP
FE
FE
FE
F0
F0
F0
F0
F0
F0
F0
F0
F0
F0
F0
F0
F0
F0
F0
F0
FE
FE
FE
ENDCHAR

STARTCHAR backslash
ENCODING 92
SWIDTH 565 0
DWIDTH 15 0
BBX 10 20 2 -3
BITMAP
E000
E000
F000
7000
7000
7800
3800
3C00
3C00
1C00
1E00
0E00
0F00
0700
0780
0780
0380
03C0
01C0
01C0
ENDCHAR

STARTCHAR bracketright
ENCODING 93
SWIDTH 565 0
DWIDTH 15 0
BBX 7 22 3 -4
BITMAP
FE
FE
FE
1E
1E
1E
1E
1E
1E
1E
1E
1E
1E
1E
1E
1E
1E
1E
1E
FE
FE
FE
ENDCHAR

STARTCHAR asciicircum
ENCODING 94
SWIDTH 565 0
DWIDTH 15 0
BBX 10 6 2 5
BITMAP
0C00
1E00
3F00
7F80
F3C0
E1C0
ENDCHAR

STARTCHAR ldblank
ENCODING 95
SWIDTH 565 0
DWIDTH 15 0
BBX 1 1 0 0
BITMAP
00
ENDCHAR

STARTCHAR diamond
ENCODING 96
SWIDTH 565 0
DWIDTH 15 0
BBX 11 15 1 0
BITMAP
0400
0E00
0E00
1F00
3F80
3F80
7FC0
FFE0
7FC0
3F80
3F80
1F00
0E00
0E00
0400
ENDCHAR

STARTCHAR checkerboard
ENCODING 97
SWIDTH 565 0
DWIDTH 15 0
BBX 14 25 0 -5
BITMAP
AAA8
5554
AAA8
5554
AAA8
5554
AAA8
5554
AAA8
5554
AAA8
5554
AAA8
5554
AAA8
5554
AAA8
5554
AAA8
5554
AAA8
5554
AAA8
5554
AAA8
ENDCHAR

STARTCHAR HT
ENCODING 98
SWIDTH 565 0
DWIDTH 15 0
BBX 11 19 2 -2
BITMAP
E700
E700
E700
FF00
FF00
E700
E700
E700
E700
0000
0FE0
0FE0
0380
0380
0380
0380
0380
0380
0380
ENDCHAR

STARTCHAR FF
ENCODING 99
SWIDTH 565 0
DWIDTH 15 0
BBX 11 19 2 -2
BITMAP
FC00
FC00
E000
E000
FC00
FC00
E000
E000
E000
0000
07E0
07E0
0700
0700
07E0
07E0
0700
0700
0700
ENDCHAR

STARTCHAR CR
ENCODING 100
SWIDTH 565 0
DWIDTH 15 0
BBX 11 19 2 -2
BITMAP
3C00
7E00
E700
E700
E000
E700
E700
7E00
3C00
0000
1FC0
1FE0
1CE0
1CE0
1FC0
1FC0
1CC0
1CE0
1CE0
ENDCHAR

STARTCHAR LF
ENCODING 101
SWIDTH 565 0
DWIDTH 15 0
BBX 11 19 2 -2
BITMAP
E000
E000
E000
E000
E000
E000
E000
FC00
FC00
0000
07E0
07E0
0700
0700
07E0
07E0
0700
0700
0700
ENDCHAR

STARTCHAR degree
ENCODING 102
SWIDTH 565 0
DWIDTH 15 0
BBX 9 8 2 9
BITMAP
3E00
7F00
E380
E380
E380
E380
7F00
3E00
ENDCHAR

STARTCHAR plusminus
ENCODING 103
SWIDTH 565 0
DWIDTH 15 0
BBX 11 15 1 0
BITMAP
0E00
0E00
0E00
0E00
FFE0
FFE0
FFE0
0E00
0E00
0E00
0E00
0000
FFE0
FFE0
FFE0
ENDCHAR

STARTCHAR NL
ENCODING 104
SWIDTH 565 0
DWIDTH 15 0
BBX 11 19 2 -2
BITMAP
C600
E600
E600
F600
FE00
DE00
CE00
CE00
C600
0000
0700
0700
0700
0700
0700
0700
0700
07E0
07E0
ENDCHAR

STARTCHAR VT
ENCODING 105
SWIDTH 565 0
DWIDTH 15 0
BBX 11 19 2 -2
BITMAP
C600
C600
EE00
EE00
EE00
6C00
7C00
3800
3800
0000
0FE0
0FE0
0380
0380
0380
0380
0380
0380
0380
ENDCHAR

STARTCHAR ldcornsqlr
ENCODING 106
SWIDTH 565 0
DWIDTH 15 0
BBX 9 14 0 6
BITMAP
0780
0780
0780
0780
0780
0780
0780
0780
0780
0780
0780
FF80
FF80
FF80
ENDCHAR

STARTCHAR ldcornsqur
ENCODING 107
SWIDTH 565 0
DWIDTH 15 0
BBX 9 14 0 -5
BITMAP
FF80
FF80
FF80
0780
0780
0780
0780
0780
0780
0780
0780
0780
0780
0780
ENDCHAR

STARTCHAR ldcornsqul
ENCODING 108
SWIDTH 565 0
DWIDTH 15 0
BBX 9 14 5 -5
BITMAP
FF80
FF80
FF80
F000
F000
F000
F000
F000
F000
F000
F000
F000
F000
F000
ENDCHAR

STARTCHAR ldcornsqll
ENCODING 109
SWIDTH 565 0
DWIDTH 15 0
BBX 9 14 5 6
BITMAP
F000
F000
F000
F000
F000
F000
F000
F000
F000
F000
F000
FF80
FF80
FF80
ENDCHAR

STARTCHAR ldcross
ENCODING 110
SWIDTH 565 0
DWIDTH 15 0
BBX 14 25 0 -5
BITMAP
0780
0780
0780
0780
0780
0780
0780
0780
0780
0780
0780
FFFC
FFFC
FFFC
0780
0780
0780
0780
0780
0780
0780
0780
0780
0780
0780
ENDCHAR

STARTCHAR ldscan1
ENCODING 111
SWIDTH 565 0
DWIDTH 15 0
BBX 14 3 0 15
BITMAP
FFFC
FFFC
FFFC
ENDCHAR

STARTCHAR ldscan3
ENCODING 112
SWIDTH 565 0
DWIDTH 15 0
BBX 14 3 0 10
BITMAP
FFFC
FFFC
FFFC
ENDCHAR

STARTCHAR ldhorizontal
ENCODING 113
SWIDTH 565 0
DWIDTH 15 0
BBX 14 3 0 6
BITMAP
FFFC
FFFC
FFFC
ENDCHAR

STARTCHAR ldscan7
ENCODING 114
SWIDTH 565 0
DWIDTH 15 0
BBX 14 3 0 0
BITMAP
FFFC
FFFC
FFFC
ENDCHAR

STARTCHAR ldscan9
ENCODING 115
SWIDTH 565 0
DWIDTH 15 0
BBX 14 3 0 -5
BITMAP
FFFC
FFFC
FFFC
ENDCHAR

STARTCHAR ldteelft
ENCODING 116
SWIDTH 565 0
DWIDTH 15 0
BBX 9 25 5 -5
BITMAP
F000
F000
F000
F000
F000
F000
F000
F000
F000
F000
F000
FF80
FF80
FF80
F000
F000
F000
F000
F000
F000
F000
F000
F000
F000
F000
ENDCHAR

STARTCHAR ldteert
ENCODING 117
SWIDTH 565 0
DWIDTH 15 0
BBX 9 25 0 -5
BITMAP
0780
0780
0780
0780
0780
0780
0780
0780
0780
0780
0780
FF80
FF80
FF80
0780
0780
0780
0780
0780
0780
0780
0780
0780
0780
0780
ENDCHAR

STARTCHAR ldteebt
ENCODING 118
SWIDTH 565 0
DWIDTH 15 0
BBX 14 14 0 6
BITMAP
0780
0780
0780
0780
0780
0780
0780
0780
0780
0780
0780
FFFC
FFFC
FFFC
ENDCHAR

STARTCHAR ldteetp
ENCODING 119
SWIDTH 565 0
DWIDTH 15 0
BBX 14 14 0 -5
BITMAP
FFFC
FFFC
FFFC
0780
0780
0780
0780
0780
0780
0780
0780
0780
0780
0780
ENDCHAR

STARTCHAR ldvertical
ENCODING 120
SWIDTH 565 0
DWIDTH 15 0
BBX 4 25 5 -5
BITMAP
F0
F0
F0
F0
F0
F0
F0
F0
F0
F0
F0
F0
F0
F0
F0
F0
F0
F0
F0
F0
F0
F0
F0
F0
F0
ENDCHAR

STARTCHAR lessequal
ENCODING 121
SWIDTH 565 0
DWIDTH 15 0
BBX 12 14 1 0
BITMAP
0070
03F0
0FF0
3F80
FC00
FC00
3F80
0FF0
03F0
0070
0000
FFF0
FFF0
FFF0
ENDCHAR

STARTCHAR greaterequal
ENCODING 122
SWIDTH 565 0
DWIDTH 15 0
BBX 12 14 1 0
BITMAP
E000
FC00
FF00
1FC0
03F0
03F0
1FC0
FF00
FC00
E000
0000
FFF0
FFF0
FFF0
ENDCHAR

STARTCHAR pi
ENCODING 123
SWIDTH 565 0
DWIDTH 15 0
BBX 12 12 1 0
BITMAP
FFF0
FFF0
79C0
79C0
79C0
71C0
7380
7380
F380
E3C0
E3C0
E3C0
ENDCHAR

STARTCHAR notequal
ENCODING 124
SWIDTH 565 0
DWIDTH 15 0
BBX 12 14 1 0
BITMAP
00C0
01C0
01C0
FFF0
FFF0
FFF0
0700
0E00
FFF0
FFF0
FFF0
3800
3800
3000
ENDCHAR

STARTCHAR sterling
ENCODING 125
SWIDTH 565 0
DWIDTH 15 0
BBX 12 15 1 0
BITMAP
07E0
1FE0
3FE0
3CE0
3800
3C00
1E00
FFC0
FFC0
1E00
1E00
3C70
7FF0
7FE0
73C0
ENDCHAR

STARTCHAR periodcentered
ENCODING 126
SWIDTH 565 0
DWIDTH 15 0
BBX 6 5 4 4
BITMAP
30
FC
FC
FC
30
ENDCHAR

STARTCHAR Error
ENCODING 159
SWIDTH 565 0
DWIDTH 15 0
BBX 14 25 0 -5
BITMAP
1FE0
7FF8
FCF8
F87C
F87C
F87C
F87C
F800
FC00
FE00
7F80
3F80
1FC0
0FC0
0FC0
0FC0
0FC0
0000
0000
0000
0FC0
0FC0
0FC0
0FC0
0FC0
ENDCHAR

STARTCHAR ldradicalbt
ENCODING 161
SWIDTH 565 0
DWIDTH 15 0
BBX 8 16 1 4
BITMAP
0F
0F
0F
0F
0F
0F
0F
0F
8F
CF
EF
FF
7F
3F
1F
0F
ENDCHAR

STARTCHAR ldradicaltp
ENCODING 162
SWIDTH 565 0
DWIDTH 15 0
BBX 9 13 5 -5
BITMAP
FF80
FF80
F000
F000
F000
F000
F000
F000
F000
F000
F000
F000
F000
ENDCHAR

STARTCHAR ldhorizontal
ENCODING 163
SWIDTH 565 0
DWIDTH 15 0
BBX 14 3 0 6
BITMAP
FFFC
FFFC
FFFC
ENDCHAR

STARTCHAR ldintegraltp
ENCODING 164
SWIDTH 565 0
DWIDTH 15 0
BBX 8 23 5 -5
BITMAP
3F
7F
7F
F8
F0
F0
F0
F0
F0
F0
F0
F0
F0
F0
F0
F0
F0
F0
F0
F0
F0
F0
F0
ENDCHAR

STARTCHAR ldintegralbt
ENCODING 165
SWIDTH 565 0
DWIDTH 15 0
BBX 8 24 1 -4
BITMAP
0F
0F
0F
0F
0F
0F
0F
0F
0F
0F
0F
0F
0F
0F
0F
0F
0F
0F
0F
0F
1F
FE
FE
FC
ENDCHAR

STARTCHAR ldvertical
ENCODING 166
SWIDTH 565 0
DWIDTH 15 0
BBX 4 25 5 -5
BITMAP
F0
F0
F0
F0
F0
F0
F0
F0
F0
F0
F0
F0
F0
F0
F0
F0
F0
F0
F0
F0
F0
F0
F0
F0
F0
ENDCHAR

STARTCHAR ldbracketlfttp
ENCODING 167
SWIDTH 565 0
DWIDTH 15 0
BBX 7 23 5 -5
BITMAP
FE
FE
FE
F0
F0
F0
F0
F0
F0
F0
F0
F0
F0
F0
F0
F0
F0
F0
F0
F0
F0
F0
F0
ENDCHAR

STARTCHAR ldbracketlftbt
ENCODING 168
SWIDTH 565 0
DWIDTH 15 0
BBX 7 24 5 -4
BITMAP
F0
F0
F0
F0
F0
F0
F0
F0
F0
F0
F0
F0
F0
F0
F0
F0
F0
F0
F0
F0
F0
FE
FE
FE
ENDCHAR

STARTCHAR ldbracketrttp
ENCODING 169
SWIDTH 565 0
DWIDTH 15 0
BBX 7 23 2 -5
BITMAP
FE
FE
FE
1E
1E
1E
1E
1E
1E
1E
1E
1E
1E
1E
1E
1E
1E
1E
1E
1E
1E
1E
1E
ENDCHAR

STARTCHAR ldbracketrtbt
ENCODING 170
SWIDTH 565 0
DWIDTH 15 0
BBX 7 24 2 -4
BITMAP
1E
1E
1E
1E
1E
1E
1E
1E
1E
1E
1E
1E
1E
1E
1E
1E
1E
1E
1E
1E
1E
FE
FE
FE
ENDCHAR

STARTCHAR ldbracelfttp
ENCODING 171
SWIDTH 565 0
DWIDTH 15 0
BBX 8 23 5 -5
BITMAP
3F
7F
7F
F8
F0
F0
F0
F0
F0
F0
F0
F0
F0
F0
F0
F0
F0
F0
F0
F0
F0
F0
F0
ENDCHAR

STARTCHAR ldbracelftbt
ENCODING 172
SWIDTH 565 0
DWIDTH 15 0
BBX 8 24 5 -4
BITMAP
F0
F0
F0
F0
F0
F0
F0
F0
F0
F0
F0
F0
F0
F0
F0
F0
F0
F0
F0
F0
F8
7F
7F
3F
ENDCHAR

STARTCHAR ldbracerttp
ENCODING 173
SWIDTH 565 0
DWIDTH 15 0
BBX 8 23 1 -5
BITMAP
FC
FE
FE
1F
0F
0F
0F
0F
0F
0F
0F
0F
0F
0F
0F
0F
0F
0F
0F
0F
0F
0F
0F
ENDCHAR

STARTCHAR ldbracertbt
ENCODING 174
SWIDTH 565 0
DWIDTH 12 0
BBX 8 24 1 -4
BITMAP
0F
0F
0F
0F
0F
0F
0F
0F
0F
0F
0F
0F
0F
0F
0F
0F
0F
0F
0F
0F
1F
FE
FE
FC
ENDCHAR

STARTCHAR ldbracelftmid
ENCODING 175
SWIDTH 565 0
DWIDTH 15 0
BBX 7 25 2 -5
BITMAP
1E
1E
1E
1E
1E
1E
1E
1E
1E
1E
3C
3C
78
F0
78
3C
3C
1E
1E
1E
1E
1E
1E
1E
1E
ENDCHAR

STARTCHAR ldbracertmid
ENCODING 176
SWIDTH 565 0
DWIDTH 15 0
BBX 7 25 5 -5
BITMAP
F0
F0
F0
F0
F0
F0
F0
F0
F0
F0
78
78
3C
1E
3C
78
78
F0
F0
F0
F0
F0
F0
F0
F0
ENDCHAR

STARTCHAR ldsigmalfttp
ENCODING 177
SWIDTH 565 0
DWIDTH 15 0
BBX 9 14 5 -5
BITMAP
FF80
FF80
FF80
F000
7000
3800
3800
1C00
1C00
0E00
0E00
0700
0780
0380
ENDCHAR

STARTCHAR ldsigmalftbt
ENCODING 178
SWIDTH 565 0
DWIDTH 15 0
BBX 9 14 5 6
BITMAP
0380
0380
0700
0700
0E00
0E00
1C00
3800
3800
7000
7000
FF80
FF80
FF80
ENDCHAR

STARTCHAR ldbackslash
ENCODING 179
SWIDTH 565 0
DWIDTH 15 0
BBX 14 25 0 -5
BITMAP
C000
E000
E000
F000
7000
7000
3800
3C00
1C00
1E00
0E00
0F00
0780
0380
03C0
01E0
00E0
00F0
0070
0038
0038
003C
001C
001C
000C
ENDCHAR

STARTCHAR ldslash
ENCODING 180
SWIDTH 565 0
DWIDTH 12 0
BBX 14 25 0 -5
BITMAP
000C
001C
001C
001C
003C
0038
0078
00F0
00E0
01E0
01C0
03C0
0780
0700
0F00
0E00
1C00
3C00
3800
3800
7000
F000
E000
E000
C000
ENDCHAR

STARTCHAR ldsigmarttp
ENCODING 181
SWIDTH 565 0
DWIDTH 15 0
BBX 13 9 0 0
BITMAP
FFF8
FFF8
FFF8
0078
0078
0078
0078
0078
0078
ENDCHAR

STARTCHAR ldsigmartbt
ENCODING 182
SWIDTH 565 0
DWIDTH 15 0
BBX 13 8 0 6
BITMAP
0078
0078
0078
0078
0078
FFF8
FFF8
FFF8
ENDCHAR

STARTCHAR ldsigmamid
ENCODING 183
SWIDTH 565 0
DWIDTH 15 0
BBX 9 25 0 -5
BITMAP
C000
C000
E000
E000
7000
7800
3800
3C00
1E00
0E00
0F00
0780
0780
0780
0F00
0E00
1E00
1C00
3800
3800
7800
7000
E000
E000
C000
ENDCHAR

STARTCHAR lessequal
ENCODING 188
SWIDTH 565 0
DWIDTH 15 0
BBX 12 14 1 0
BITMAP
0070
03F0
0FF0
3F80
FC00
FC00
3F80
0FF0
03F0
0070
0000
FFF0
FFF0
FFF0
ENDCHAR

STARTCHAR notequal
ENCODING 189
SWIDTH 565 0
DWIDTH 15 0
BBX 12 14 1 0
BITMAP
00C0
01C0
01C0
FFF0
FFF0
FFF0
0700
0E00
FFF0
FFF0
FFF0
3800
3800
3000
ENDCHAR

STARTCHAR greaterequal
ENCODING 190
SWIDTH 565 0
DWIDTH 15 0
BBX 12 14 1 0
BITMAP
E000
FC00
FF00
1FC0
03F0
03F0
1FC0
FF00
FC00
E000
0000
FFF0
FFF0
FFF0
ENDCHAR

STARTCHAR integral
ENCODING 191
SWIDTH 565 0
DWIDTH 15 0
BBX 13 24 1 -5
BITMAP
01F0
03F8
0738
0738
0700
0700
0700
0700
0700
0700
0700
0700
0700
0700
0700
0700
0700
0700
0700
0700
E700
E700
FE00
7C00
ENDCHAR

STARTCHAR therefore
ENCODING 192
SWIDTH 565 0
DWIDTH 15 0
BBX 12 13 1 0
BITMAP
0E00
1F00
1F00
1F00
0E00
0000
0000
0000
70E0
F9F0
F9F0
F9F0
70E0
ENDCHAR

STARTCHAR proportional
ENCODING 193
SWIDTH 565 0
DWIDTH 15 0
BBX 12 11 1 1
BITMAP
3CF0
7FF0
F7F0
E380
E300
E300
E380
E380
F7F0
7FF0
3CF0
ENDCHAR

STARTCHAR infinity
ENCODING 194
SWIDTH 565 0
DWIDTH 15 0
BBX 13 11 1 1
BITMAP
3CE0
7FF0
EFB8
C718
C718
C718
C718
C718
EFB8
7FF0
3CE0
ENDCHAR

STARTCHAR divide
ENCODING 195
SWIDTH 565 0
DWIDTH 15 0
BBX 12 15 1 0
BITMAP
0600
0F00
0F00
0600
0000
0000
FFF0
FFF0
FFF0
0000
0000
0600
0F00
0F00
0600
ENDCHAR

STARTCHAR Delta
ENCODING 196
SWIDTH 565 0
DWIDTH 15 0
BBX 12 15 1 0
BITMAP
0600
0600
0F00
0F00
1F80
1F80
39C0
39C0
79E0
70E0
70E0
FFF0
FFF0
FFF0
FFF0
ENDCHAR

STARTCHAR gradient
ENCODING 197
SWIDTH 565 0
DWIDTH 15 0
BBX 12 15 1 0
BITMAP
FFF0
FFF0
FFF0
F0F0
70E0
70E0
79E0
39C0
39C0
1F80
1F80
0F00
0F00
0600
0600
ENDCHAR

STARTCHAR Phi
ENCODING 198
SWIDTH 565 0
DWIDTH 15 0
BBX 12 15 1 0
BITMAP
3FC0
3FC0
0F00
3FC0
7FE0
EF70
CF30
CF30
CF30
EF70
7FE0
3FC0
0F00
3FC0
3FC0
ENDCHAR

STARTCHAR Gamma
ENCODING 199
SWIDTH 565 0
DWIDTH 15 0
BBX 12 15 1 0
BITMAP
FFF0
FFF0
FFF0
7870
7870
7800
7800
7800
7800
7800
7800
7800
FE00
FE00
FE00
ENDCHAR

STARTCHAR similar
ENCODING 200
SWIDTH 565 0
DWIDTH 15 0
BBX 12 4 1 5
BITMAP
7C30
FFF0
FFF0
C3E0
ENDCHAR

STARTCHAR approxequal
ENCODING 201
SWIDTH 565 0
DWIDTH 15 0
BBX 12 10 1 2
BITMAP
7C30
FFF0
FFF0
C3E0
0000
0000
0000
FFF0
FFF0
FFF0
ENDCHAR

STARTCHAR Theta
ENCODING 202
SWIDTH 565 0
DWIDTH 15 0
BBX 12 15 1 0
BITMAP
0F00
7FE0
7FE0
79E0
F0F0
F0F0
F6F0
F6F0
F6F0
F0F0
F0F0
79E0
7FE0
7FE0
0F00
ENDCHAR

STARTCHAR multiply
ENCODING 203
SWIDTH 565 0
DWIDTH 15 0
BBX 10 11 2 1
BITMAP
E1C0
F3C0
7380
3F00
1E00
1E00
3F00
7F80
7380
E1C0
E1C0
ENDCHAR

STARTCHAR Lambda
ENCODING 204
SWIDTH 565 0
DWIDTH 15 0
BBX 12 15 1 0
BITMAP
0600
0600
0F00
0F00
1F80
1F80
39C0
39C0
79E0
70E0
70E0
F9F0
F9F0
F9F0
F9F0
ENDCHAR

STARTCHAR arrowdblboth
ENCODING 205
SWIDTH 565 0
DWIDTH 15 0
BBX 13 13 0 1
BITMAP
0880
18C0
38E0
7FF0
7FF0
FFF8
E078
FFF8
7FF0
7FF0
38E0
18C0
0880
ENDCHAR

STARTCHAR arrowdblright
ENCODING 206
SWIDTH 565 0
DWIDTH 15 0
BBX 12 13 1 1
BITMAP
0600
0700
0380
FFC0
FFE0
FFF0
00F0
FFF0
FFE0
FFC0
0380
0700
0600
ENDCHAR

STARTCHAR equivalence
ENCODING 207
SWIDTH 565 0
DWIDTH 15 0
BBX 12 13 1 0
BITMAP
FFF0
FFF0
FFF0
0000
0000
FFF0
FFF0
FFF0
0000
0000
FFF0
FFF0
FFF0
ENDCHAR

STARTCHAR Pi
ENCODING 208
SWIDTH 565 0
DWIDTH 15 0
BBX 12 15 1 0
BITMAP
FFF0
FFF0
FFF0
79E0
79E0
79E0
79E0
79E0
79E0
79E0
79E0
79E0
F9F0
F9F0
F9F0
ENDCHAR

STARTCHAR Psi
ENCODING 209
SWIDTH 565 0
DWIDTH 15 0
BBX 12 15 1 0
BITMAP
3FC0
0F00
0F00
CF30
CF30
CF30
CF30
CF30
FFF0
7FE0
3FC0
0F00
0F00
0F00
3FC0
ENDCHAR

STARTCHAR Sigma
ENCODING 211
SWIDTH 565 0
DWIDTH 15 0
BBX 12 15 1 0
BITMAP
FFF0
FFF0
FFF0
7870
3C70
1E00
0F00
0F00
1E00
3C70
7C70
F870
FFF0
FFF0
FFF0
ENDCHAR

STARTCHAR radical
ENCODING 214
SWIDTH 565 0
DWIDTH 15 0
BBX 14 20 0 -3
BITMAP
003C
003C
003C
0078
0078
0070
2070
60F0
F0E0
F0E0
F9E0
79C0
3DC0
3FC0
1F80
1F80
0F80
0F00
0700
0700
ENDCHAR

STARTCHAR Omega
ENCODING 215
SWIDTH 565 0
DWIDTH 15 0
BBX 12 15 1 0
BITMAP
3FC0
7FE0
7FE0
F9F0
F0F0
F0F0
F0F0
F0F0
F0F0
79E0
39C0
39C0
F9F0
F9F0
F9F0
ENDCHAR

STARTCHAR Xi
ENCODING 216
SWIDTH 565 0
DWIDTH 15 0
BBX 12 15 1 0
BITMAP
FFF0
FFF0
FFF0
C070
0000
30C0
3FC0
3FC0
30C0
0000
E070
E070
FFF0
FFF0
FFF0
ENDCHAR

STARTCHAR Upsilon1
ENCODING 217
SWIDTH 565 0
DWIDTH 15 0
BBX 12 15 1 0
BITMAP
F0F0
F0F0
F0F0
79E0
79E0
39C0
39C0
1F80
0F00
0F00
0F00
0F00
3FC0
3FC0
3FC0
ENDCHAR

STARTCHAR propersubset
ENCODING 218
SWIDTH 565 0
DWIDTH 15 0
BBX 12 14 1 0
BITMAP
1FF0
7FF0
7FF0
F800
F000
F000
F000
F000
F000
F000
F800
7FF0
7FF0
1FF0
ENDCHAR

STARTCHAR propersuperset
ENCODING 219
SWIDTH 565 0
DWIDTH 15 0
BBX 11 14 1 0
BITMAP
FF00
FFC0
FFC0
03E0
01E0
01E0
01E0
01E0
01E0
01E0
03E0
FFC0
FFC0
FF00
ENDCHAR

STARTCHAR intersection
ENCODING 220
SWIDTH 565 0
DWIDTH 15 0
BBX 12 15 1 0
BITMAP
1F80
7FE0
7FE0
F9F0
F0F0
F0F0
F0F0
F0F0
F0F0
F0F0
F0F0
F0F0
F0F0
F0F0
F0F0
ENDCHAR

STARTCHAR union
ENCODING 221
SWIDTH 565 0
DWIDTH 15 0
BBX 12 15 1 0
BITMAP
F0F0
F0F0
F0F0
F0F0
F0F0
F0F0
F0F0
F0F0
F0F0
F0F0
F0F0
F9F0
7FE0
7FE0
1F80
ENDCHAR

STARTCHAR logicaland
ENCODING 222
SWIDTH 565 0
DWIDTH 15 0
BBX 12 15 1 0
BITMAP
0F00
0F00
0F00
1F80
1F80
39C0
39C0
39C0
70E0
70E0
F0F0
F0F0
E070
E070
E070
ENDCHAR

STARTCHAR logicalor
ENCODING 223
SWIDTH 565 0
DWIDTH 15 0
BBX 12 15 1 0
BITMAP
E070
E070
E070
F0F0
F0F0
70E0
70E0
39C0
39C0
39C0
1F80
1F80
0F00
0F00
0F00
ENDCHAR

STARTCHAR logicalnot
ENCODING 224
SWIDTH 565 0
DWIDTH 15 0
BBX 12 7 1 3
BITMAP
FFF0
FFF0
FFF0
00F0
00F0
00F0
00F0
ENDCHAR

STARTCHAR alpha
ENCODING 225
SWIDTH 565 0
DWIDTH 15 0
BBX 12 12 1 0
BITMAP
0E70
3FF0
7FE0
79E0
F1E0
F1C0
F1C0
F1C0
F3C0
FFF0
7FF0
3E70
ENDCHAR

STARTCHAR beta
ENCODING 226
SWIDTH 565 0
DWIDTH 15 0
BBX 12 22 1 -5
BITMAP
0FC0
1FE0
1FE0
3CF0
3870
3870
38F0
3BE0
7BC0
73E0
70F0
70F0
70F0
71F0
FFE0
FFE0
EF80
E000
E000
E000
E000
E000
ENDCHAR

STARTCHAR chi
ENCODING 227
SWIDTH 565 0
DWIDTH 15 0
BBX 12 17 1 -5
BITMAP
7870
7870
3CF0
3CE0
3DC0
0F80
0F00
0F00
0F00
1F00
1F80
3F80
7B80
73C0
F3C0
E1E0
E1E0
ENDCHAR

STARTCHAR delta
ENCODING 228
SWIDTH 565 0
DWIDTH 15 0
BBX 12 18 1 0
BITMAP
07F0
07F0
0FF0
0E00
0E00
0700
1F80
7FE0
7FE0
F8F0
F0F0
F0F0
F0F0
F0F0
F9F0
7FE0
7FE0
3F80
ENDCHAR

STARTCHAR epsilon
ENCODING 229
SWIDTH 565 0
DWIDTH 15 0
BBX 12 12 1 0
BITMAP
0FF0
3FF0
3FF0
7800
7800
FFC0
FFC0
F000
F000
7FE0
7FE0
3FC0
ENDCHAR

STARTCHAR phi
ENCODING 230
SWIDTH 565 0
DWIDTH 15 0
BBX 12 18 1 -3
BITMAP
0300
0300
0300
0F80
3FE0
76E0
7670
E670
E670
E670
ECF0
ECE0
EDE0
7FC0
3F00
1C00
1800
1800
ENDCHAR

STARTCHAR gamma
ENCODING 231
SWIDTH 565 0
DWIDTH 15 0
BBX 12 17 1 -5
BITMAP
F070
F0F0
78E0
79E0
79C0
3BC0
3B80
3F80
1F00
1F00
0E00
1E00
3C00
3800
3800
7800
7000
ENDCHAR

STARTCHAR eta
ENCODING 232
SWIDTH 565 0
DWIDTH 15 0
BBX 12 17 1 -5
BITMAP
F3E0
FFF0
7CF0
78F0
78F0
78F0
79E0
79E0
F1E0
F1E0
F1E0
F1E0
03C0
03C0
03C0
03C0
03C0
ENDCHAR

STARTCHAR iota
ENCODING 233
SWIDTH 565 0
DWIDTH 15 0
BBX 10 12 2 0
BITMAP
FC00
FC00
3C00
3C00
3C00
7800
7800
7800
79C0
7FC0
7FC0
1F00
ENDCHAR

STARTCHAR theta
ENCODING 234
SWIDTH 565 0
DWIDTH 15 0
BBX 12 17 1 0
BITMAP
0780
1FC0
3FE0
38E0
78F0
70F0
F0F0
FFF0
FFF0
F0F0
F0F0
F1E0
F1E0
F3C0
7FC0
7F80
3E00
ENDCHAR

STARTCHAR kappa
ENCODING 235
SWIDTH 565 0
DWIDTH 15 0
BBX 12 12 1 0
BITMAP
F8E0
79E0
79C0
7B80
7F00
7E00
7F00
7F80
F7C0
F3E0
F1F0
F0F0
ENDCHAR

STARTCHAR lambda
ENCODING 236
SWIDTH 565 0
DWIDTH 15 0
BBX 13 17 0 0
BITMAP
7C00
7C00
1E00
1E00
0E00
0F00
0F00
0F80
1F80
1F80
3FC0
39C0
79E0
71E0
F0F0
F0F8
F0F8
ENDCHAR

STARTCHAR nu
ENCODING 238
SWIDTH 565 0
DWIDTH 15 0
BBX 13 12 0 0
BITMAP
FC78
FC78
FC78
3C78
3C70
3CF0
3CE0
3DC0
1F80
1F80
1F00
0E00
ENDCHAR

STARTCHAR partialdiff
ENCODING 239
SWIDTH 565 0
DWIDTH 15 0
BBX 11 17 1 0
BITMAP
3E00
3F80
3FC0
03C0
01E0
01E0
1FE0
7FE0
7FE0
F9E0
F1E0
F1E0
F1E0
F3E0
7FC0
7FC0
1F00
ENDCHAR

STARTCHAR pi
ENCODING 240
SWIDTH 565 0
DWIDTH 15 0
BBX 12 12 1 0
BITMAP
FFF0
FFF0
79C0
79C0
79C0
71C0
7380
7380
F380
E3C0
E3C0
E3C0
ENDCHAR

STARTCHAR psi
ENCODING 241
SWIDTH 565 0
DWIDTH 15 0
BBX 12 21 1 -5
BITMAP
0300
0300
0300
0300
7370
7370
7370
7370
E670
E670
E670
E670
E6E0
FFE0
7FC0
3F80
0E00
0E00
0E00
0C00
0C00
ENDCHAR

STARTCHAR rho
ENCODING 242
SWIDTH 565 0
DWIDTH 15 0
BBX 13 17 0 -5
BITMAP
0FC0
3FF0
3CF0
3878
7878
7878
7878
7878
7CF8
7FF0
7FF0
77C0
F000
F000
F000
F000
F000
ENDCHAR

STARTCHAR sigma
ENCODING 243
SWIDTH 565 0
DWIDTH 15 0
BBX 13 12 1 0
BITMAP
0FF8
3FF8
7FF8
78E0
F0F0
F0F0
F0F0
F0F0
F1F0
7FE0
7FE0
1F80
ENDCHAR

STARTCHAR tau
ENCODING 244
SWIDTH 565 0
DWIDTH 15 0
BBX 11 12 1 0
BITMAP
FFE0
FFE0
1E00
1E00
1E00
3C00
3C00
3C00
3CE0
3FE0
3FE0
0F80
ENDCHAR

STARTCHAR florin
ENCODING 246
SWIDTH 565 0
DWIDTH 15 0
BBX 12 20 1 -4
BITMAP
01F0
03F0
03F0
0700
0700
3FE0
3FE0
3FE0
0700
0700
0700
0700
0700
0E00
0E00
0E00
0E00
FE00
FC00
F800
ENDCHAR

STARTCHAR omega
ENCODING 247
SWIDTH 565 0
DWIDTH 15 0
BBX 12 12 1 0
BITMAP
7870
7870
7870
7370
F370
F370
F670
F6F0
F6F0
FFE0
7FE0
3BC0
ENDCHAR

STARTCHAR xi
ENCODING 248
SWIDTH 565 0
DWIDTH 15 0
BBX 12 21 1 -4
BITMAP
7FF0
7FF0
7FF0
0F00
1C00
3C00
3C00
1F80
0F80
3F80
7800
F000
F000
F800
FF00
7F80
3F80
0380
0380
0780
3E00
ENDCHAR

STARTCHAR upsilon
ENCODING 249
SWIDTH 565 0
DWIDTH 15 0
BBX 12 12 1 0
BITMAP
78F0
78F0
78F0
78F0
F0F0
F0F0
F0E0
F0E0
F1E0
7FC0
7FC0
3F00
ENDCHAR

STARTCHAR zeta
ENCODING 250
SWIDTH 565 0
DWIDTH 15 0
BBX 12 22 1 -5
BITMAP
7FF0
7FF0
7FF0
0380
0700
0E00
1C00
3C00
7800
7800
F800
F000
F000
F800
FF80
7FC0
1FE0
01E0
01E0
01E0
03C0
0F80
ENDCHAR

STARTCHAR arrowleft
ENCODING 251
SWIDTH 565 0
DWIDTH 15 0
BBX 13 11 1 1
BITMAP
1C00
3C00
3800
7800
FFF8
FFF8
FFF8
7800
3800
3C00
1C00
ENDCHAR

STARTCHAR arrowup
ENCODING 252
SWIDTH 565 0
DWIDTH 15 0
BBX 11 19 2 -2
BITMAP
0400
0E00
1F00
3F80
3F80
7FC0
EEE0
CE60
CE60
0E00
0E00
0E00
0E00
0E00
0E00
0E00
0E00
0E00
0E00
ENDCHAR

STARTCHAR arrowright
ENCODING 253
SWIDTH 565 0
DWIDTH 15 0
BBX 13 11 0 1
BITMAP
01C0
01E0
00E0
00F0
FFF8
FFF8
FFF8
00F0
00E0
01E0
01C0
ENDCHAR

STARTCHAR arrowdown
ENCODING 254
SWIDTH 565 0
DWIDTH 15 0
BBX 11 19 1 -2
BITMAP
0E00
0E00
0E00
0E00
0E00
0E00
0E00
0E00
0E00
0E00
CE60
CE60
EEE0
7FC0
3F80
3F80
1F00
0E00
0400
ENDCHAR
ENDFONT
